<?xml version="1.0" encoding="UTF-8"?>
<svg width="256px" height="256px" viewBox="0 0 256 256" version="1.1" xmlns="http://www.w3.org/2000/svg" xmlns:xlink="http://www.w3.org/1999/xlink">
    <!-- Generator: Sketch 51.2 (57519) - http://www.bohemiancoding.com/sketch -->
    <title>_branding/Elo</title>
    <desc>Created with Sketch.</desc>
    <defs></defs>
    <g id="_branding/Elo" stroke="none" stroke-width="1" fill="none" fill-rule="evenodd">
        <g id="elo" transform="translate(48.000000, 48.000000)">
            <path d="M80.0651003,0 C124.211805,0 160,35.7881948 160,79.9348997 C160,124.082063 124.211805,159.869799 80.0651003,159.869799 C35.9183954,159.869799 0.130200573,124.082063 0.130200573,79.9348997 C0.130200573,35.7881948 35.9183954,0 80.0651003,0" id="Fill-1" fill="#0F0F12"></path>
            <path d="M80.0651003,0 C124.211805,0 160,35.7881948 160,79.9348997 C160,124.082063 124.211805,159.869799 80.0651003,159.869799 C35.9183954,159.869799 0.130200573,124.082063 0.130200573,79.9348997 C0.130200573,35.7881948 35.9183954,0 80.0651003,0 Z" id="Stroke-2" stroke="#1B1A19" stroke-width="0.567"></path>
            <path d="M56.2631519,73.7861318 L31.7244699,84.3603438 C31.6864183,83.9376504 31.6653295,83.509914 31.6653295,83.0771347 C31.6653295,75.3150716 37.9575931,69.022808 45.7196562,69.022808 C49.9190831,69.022808 53.6880229,70.865788 56.2631519,73.7861318 Z M45.7196562,58.5123209 C57.2987966,58.5123209 67.0046991,66.5242407 69.6009169,77.3070487 L59.7001719,81.6362178 L59.6978797,81.6155874 L49.5688252,86.065788 L25.2703725,96.6899713 C22.6709456,92.7931232 21.1548424,88.1123209 21.1548424,83.0771347 C21.1548424,69.5101433 32.1526648,58.5123209 45.7196562,58.5123209 Z" id="Fill-4" fill="#FFFFFE"></path>
            <path d="M62.8845845,100.649169 C54.0891691,108.997135 42.453639,109.81639 32.2296848,103.609398 L38.0061891,94.8268195 C43.8239542,98.3041834 49.6683095,97.7402865 55.5397135,93.1305444 L62.8845845,100.649169" id="Fill-5" fill="#FFFFFE"></path>
            <path d="M72.8866476,94.5687106 L72.8247564,48.1150716 L81.6256734,48.1150716 L81.6256734,93.314384 C81.6256734,93.7480802 81.6793123,94.1299713 82.2482521,94.3509456 L89.9044126,97.328596 L86.4550143,106.297307 L77.4863037,102.502693 C74.0855014,101.06361 72.8926074,98.9785673 72.8866476,94.5687106" id="Fill-6" fill="#FFFFFE"></path>
            <path d="M106.024986,93.7875072 C102.72596,91.2224642 100.601948,87.219255 100.601948,82.7167908 C100.601948,78.7140401 102.282178,75.1060172 104.972378,72.5515186 L99.2880229,63.3389112 C93.5738682,67.8661318 89.9044126,74.860745 89.9044126,82.7167908 C89.9044126,91.1844126 94.1643553,98.6548997 100.656504,103.108768 L106.024986,93.7875072" id="Fill-7" fill="#2191C3"></path>
            <path d="M109.878281,69.522063 C111.359542,68.989341 112.956332,68.6973066 114.621433,68.6973066 C120.623954,68.6973066 125.742579,72.4712894 127.741891,77.7746705 L138.634269,76.8646418 C136.005043,66.0396562 126.255129,58.0002292 114.621433,58.0002292 C111.334327,58.0002292 108.199885,58.6475645 105.330888,59.8124928 L109.878281,69.522063" id="Fill-8" fill="#FAEC32"></path>
            <path d="M128.623496,83.3962178 C128.268653,90.8231519 122.135931,96.7362751 114.621433,96.7362751 C113.443209,96.7362751 112.300287,96.5886533 111.207335,96.3154155 L106.934556,106.208367 C109.354728,106.999198 111.936734,107.433352 114.621433,107.433352 C127.931232,107.433352 138.778223,96.911404 139.311862,83.7327221 L128.623496,83.3962178" id="Fill-9" fill="#D0362B"></path>
        </g>
    </g>
</svg>